/* XPM */
static char *b368e941530e4b2ad4af202645d1f370BIHB8bZbVOBK3yLI[] = {
/* columns rows colors chars-per-pixel */
"32 32 90 1 ",
"  c #0B2997",
". c #0A2A99",
"X c #0C2A98",
"o c #0D2B99",
"O c #0C2A9A",
"+ c #0D2B9B",
"@ c #0B2D9B",
"# c #0E2C9A",
"$ c #0F2D9B",
"% c #0D2D9C",
"& c #0C2E9C",
"* c #0D2F9D",
"= c #0F2F9C",
"- c #0E2E9D",
"; c #0C2D9E",
": c #0D2E9F",
"> c #0F2F9E",
", c #102E9C",
"< c #112F9D",
"1 c #0F319F",
"2 c #10309F",
"3 c #12309E",
"4 c #13319F",
"5 c #14309D",
"6 c #15319E",
"7 c #16329F",
"8 c #0E2FA0",
"9 c #1131A0",
"0 c #1331A1",
"q c #1032A0",
"w c #1133A1",
"e c #1333A0",
"r c #1232A1",
"t c #1031A2",
"y c #1131A2",
"u c #1132A3",
"i c #1333A2",
"p c #1232A3",
"a c #1432A0",
"s c #1533A1",
"d c #1733A0",
"f c #1533A3",
"g c #1234A2",
"h c #1335A3",
"j c #1434A1",
"k c #1535A2",
"l c #1434A3",
"z c #1634A2",
"x c #1735A3",
"c c #1636A3",
"v c #1334A5",
"b c #1535A4",
"n c #1634A4",
"m c #1735A5",
"M c #1436A4",
"N c #1537A5",
"B c #1636A5",
"V c #1435A6",
"C c #1535A6",
"Z c #1536A7",
"A c #1737A6",
"S c #1636A7",
"D c #1834A1",
"F c #1935A2",
"G c #1A36A3",
"H c #1836A4",
"J c #1937A5",
"K c #1739A7",
"L c #1838A7",
"P c #1A38A6",
"I c #1B39A7",
"U c #1939A8",
"Y c #1838A9",
"T c #183AA8",
"R c #193BA9",
"E c #1A3AA9",
"W c #1B3BAA",
"Q c #1A3AAB",
"! c #1C3AA8",
"~ c #1D3BA9",
"^ c #1B3DAB",
"/ c #1C3CAB",
"( c #1E3CAA",
") c #1F3DAB",
"_ c #1D3DAC",
"` c #1C3EAC",
"' c #1D3FAD",
"] c #203EAC",
"[ c #213FAD",
"{ c #1F41AF",
/* pixels */
"4ssssHx,$,xxs,4,777sGDD<7DDD77<6",
",s44sHs,,,xxss,,777DGDD77DGD7777",
"$,444xs$,4sxs4,4777DDDD77DGDG777",
"$$44s44,,4sxsss,7<77DDs777DG777G",
"$$,s4s,444ssxs44<<444s44,ssxDsxD",
"44sxx,,44s4ssss,774,4s4444ssDssx",
"ssHPx44ss44sxs44xx4s4ss4,ss44s44",
"xsH~H,4sx444xxs4PHxsxss4,44s4,44",
"s44,44sx444sxxs4s;epYYe.x1;;,BEE",
"ss444sxxss4sex44BBpSEEB1BBeBBE__",
"44,44sxHxss47e74BxeeKBh1eeepBBBP",
",,4,44xxs444xxBxhe;eeBeqeppSEEYB",
"4,,sssHH4444sxBPEBehNYKK@1;11e11",
"4xxxHHHHxs4sxxxxSBhhNYYTR`R{{{{R",
"ssssxxxxsxsxxHxxhuu1uhhZ18;;;18;",
",s4sss4s4,4sHPHHp1u1phSNYYShZKYY",
"s,,$,,44s4,sx,4sesBBnxse+;B,es+x",
"ss,,ssss44sxxs,4enxxssss7xPsss.s",
"Hs4sxss44sH~~xs4xxxssssHxH~sxx#s",
"s444sss,44sP~s4ss4sHsssHesHsP~4~",
"4,4ss4,,,,,ss,,,#$sxHssH,4H4~)s~",
"44,4ssxsx4,ss,ss,$4HHss~,$4#sx#s",
"ss44sxHHHxsHHsxHH44HH4s~,,s#sx ,",
"444,sHHHs4,ss4,4)HsHHsH[PHPx~[s~",
"s44sss44sHs,4sssxss4ssxs,ss44HHs",
"x,,,4444HHx4,sssss,4sxss,ss44ss4",
"ss$,,xssHHH4sss,,,,ssxs44sss4sss",
"sHHsssxHHHHssss4,44sxss,sHssssss",
",H)~ss4s4sx4sxxssssxxs4,PHxxssxx",
"#x[Ps,,$,sss4xxss4sxHs,,~HsHsssH",
" sPHssx$,ss44ss,,444sxs,HxsssssH",
"#ssss~P,,4s44s4$$$,,ss44H4,s4,sH"
};
