/* XPM */
static char *result[] = {
/* columns rows colors chars-per-pixel */
"32 32 15 1 ",
"  c black",
". c #6B153A",
"X c #382944",
"o c #AC1309",
"O c #B9150B",
"+ c #C6180D",
"@ c #BB5E00",
"# c #E76D52",
"$ c #F77A5E",
"% c #EF9E1B",
"& c #FFC809",
"* c #FB8A70",
"= c #847E87",
"- c white",
"; c None",
/* pixels */
";;;;;;;;;;;;;;;;;;;;;;;;;;;;;;;;",
";;;;;;;;;;    ;; ;    ;;;;;;;;;;",
";;;;;;;;  &&&&  . &&&&  ;;;;;;;;",
";;;;;;; &&%%&&@ .@&&%%&& ;;;;;;;",
";;;;;; &&%%%%@; . @%%%%&& ;;;;;;",
";;;;; %%%%    ; .  @@@%%%% ;;;;;",
";;;;;;    ;;;;; . ;       ;;;;;;",
";;;;;;;;;;     ..  ;;;;;;;;;;;;;",
";;;;;;;;  oooOO . O   ;;;;;;;;;;",
";;;;;;; ooooO++O O+OOO ;;;;;;;;;",
";;;;;; ooooO++++++++O#* ;;;;;;;;",
";;;;;; ooooO+++++++O$$#* ;;;;;;;",
";;;;; ooooO++oo++++O#$#* ;;;;;;;",
";;;;; ooooO++oo++++O$$#* ;;;;;;;",
";;;; ooooO+++++++++O$$$#* ;;;;;;",
";;;; OOOO+++o+++++++O$$$# ;;;;;;",
";;;; ++++++++++++++++O#$# ;;;;;;",
";;;; +O  O+++++++O  OO$$$# ;;;;;",
";;;; O-   O+++++O-   OO#$$# ;;;;",
";;;; O    O+++++O    O+OO$* ;;;;",
";;;; +OOOO+++++++OOOO++++OO ;;;;",
";;;; +++++O=X=X=O++++++++OO ;;;;",
";;;;; +++O - - - O++++++++O ;;;;",
";;;;; +++O       O++++++++O ;;;;",
";;;;;; ++O       O+++++++O ;;;;;",
";;;;;; ++O       O++OOO++O ;;;;;",
";;;;;;; +OX-X-X-XO+OoooOO ;;;;;;",
";;;;;;;; +OOOOOOO+Oooooo ;;;;;;;",
";;;;;;;;;  ++++++Ooooo  ;;;;;;;;",
";;;;;;;;;;;  OOOOooo  ;;;;;;;;;;",
";;;;;;;;;;;;;       ;;;;;;;;;;;;",
";;;;;;;;;;;;;;;;;;;;;;;;;;;;;;;;"
};
