/* XPM */
static char *result[] = {
/* columns rows colors chars-per-pixel */
"32 32 9 1 ",
"  c #141013",
". c #423934",
"X c #5A4E44",
"o c #796655",
"O c #A08662",
"+ c #C7B08B",
"@ c #E4D2AA",
"# c white",
"$ c None",
/* pixels */
"$$$$$$$$$$$$$$$$$$$$$$$$$$$$$$$$",
"$$$$$$$$$$$$$$$$$$$$$$$$$$$$$$$$",
"$$$$$$$$$$$$$$$$$$$$$$$$$$$$$$$$",
"$$$$$$$$$$$$$$$$$$$$$$$$$$$$$$$$",
"$$$$$$$$$$$$$$$$$$$$$$$$$$$$$$$$",
"$$$$$$$$$$$$$$$$$$$$$$$$$$$$$$$$",
"$$$$$$$$$$$$$$$$$$$$$$$$$$$$$$$$",
"$$$$$$$$$$$$$$$$$$$$$$$$$$$$$$$$",
"$$$$$$$$$$$$$$$$$$$$$$$$$$$$$$$$",
"$$$$$$$$$$$$$$$$$$$$$$$$$$$$$$$$",
"$$$$$$$$$$$$$$$$$$$$      $$$$$$",
"$$$$$$$$$$$$$$$$$   ####@@ $$$$$",
"$$$$$$$$$$$$$$$  @##@@@#++@ $$$$",
"$$$$$$$$$$$$$  ###@@@@+++++@ $$$",
"$$$$$$$$$$$  ###@@O@++++++++@ $$",
"$$$$$$$$$$ @@#++@@OOOO+O@Ooo@ $$",
"$$$$$$$$  @@@@@@O@@+++OOOooOo $$",
"$$$$$$$ @##@@O@O@@O+Ooooo@oo.o $",
"$$$$$$ @##@@O++O@+OOOOo@@oo... $",
"$$$$$ #@#+@++OOO+OOoo@Oooo...X $",
"$$$$ @#@+O++O+OOOooo@Oooo..OOO $",
"$$$ ##++O++++OOOooO@ooo...OX O $",
"$$ #@+O++OOO+OOoO.oOO.....X.   $",
"$ @+++++OOXXXo....O..X..XX.   $$",
"$ @++Oo+OOOO....X..oXoOXX  .X $$",
" Oo+oooO......OOXooXXX .X .. $$$",
" ooXX+....++OooXoXXXX  ...   $$$",
"  XXooo..+XXooXXXXX......  $$$$$",
"$  ..XXoo  .X XXX.....    $$$$$$",
"$$$      .XXX.....       $$$$$$$",
"$$$$$                $$$$$$$$$$$",
"$$$$$$$$$$$$$$$$$$$$$$$$$$$$$$$$"
};
