/* XPM */
static char *_96c39ca3b494ed39954cd42ab6697bd1cjVzoch9WaP6gvU[] = {
/* columns rows colors chars-per-pixel */
"32 32 2 1 ",
"  c #00745A",
". c #00755B",
/* pixels */
"        ........                ",
"        ........                ",
"        ........                ",
"        ........                ",
"        ........                ",
"        ........                ",
"        ...... .                ",
"                                ",
"                                ",
"                                ",
"                                ",
"                                ",
"                                ",
"                                ",
"                                ",
"                                ",
"                                ",
"                                ",
"                                ",
"                                ",
"                                ",
"                                ",
"                                ",
"                                ",
"                                ",
"                                ",
"                                ",
"                                ",
"                                ",
"                                ",
"                                ",
"                                "
};
