/* XPM */
static char *result[] = {
/* columns rows colors chars-per-pixel */
"32 32 5 1 ",
"  c black",
". c #3A0911",
"X c #811426",
"o c #A11B31",
"O c None",
/* pixels */
"OOOOOOOOOOOOOOOOOOOOOOOOOOOOOOOO",
"OOOOOOOOOOOOOOOOOOOOOOOOOOOOOOOO",
"OOOOOOOOOOOO.......OOOOOOOOOOOOO",
"OOOOOOOOOOO.Xoooooo.OOOOOOOOOOOO",
"OOOOOOOOOO.Xoooooooo.OOOOOOOOOOO",
"OOOOOOOOO.Xoooooooooo.OOOOOOOOOO",
"OOOOOOOOO.Xooooooooooo.OOOOOOOOO",
"OOOOOOOO.XXooooooooooo.OOOOOOOOO",
"OOOOOOOO.XXXoooooooooo.OOOOOOOOO",
"OOOOOOOO.X.Xoooooooooo.OOOOOOOOO",
"OOOOOOOO.X.XoooooooooX.OOOOOOOOO",
"OOOOOOOOO..XXooooooooX.OOOOOOOOO",
"OOOOOOOOOOO.XXXoooooX.OOOOOOOOOO",
"OOOOOOOOOOOO..XXoooX.OOOOOOOOOOO",
"OOOOOOOOOOO.XXXoooooX.OOOOOOOOOO",
"OOOOOOOOOO.XoooooooooX.OOOOOOOOO",
"OOOOOOOOOO.XoooooooooX.OOOOOOOOO",
"OOOOOOOOOO.ooooooooooo.OOOOOOOOO",
"OOOOOOOOO.Xooooooooooo.OOOOOOOOO",
"OOOOOOOOO.XoooooooooooX.OOOOOOOO",
"OOOOOOOOO.XoooooooooooX.OOOOOOOO",
"OOOOOOOOO.XooooooooooXX.OOOOOOOO",
"OOOOOOOO.XXXoXoooXoooXX.OOOOOOOO",
"OOOOOOOO.XXXXoooXXooXXX.OOOOOOOO",
"OOOOOOOO.X.XXXXXXXXXX.X.OOOOOOOO",
"OOOOOOOOO..X.XX.....XX.OOOOOOOOO",
"OOOOOOOOOO..O...OO....OOOOOOOOOO",
"OOOOOOOOOOOOOO OOOO OOOOOOOOOOOO",
"OOOOOOOOOOOOOO OOOO OOOOOOOOOOOO",
"OOOOOOOOOOOOOO OOOO OOOOOOOOOOOO",
"OOOOOOOOOOOOOOOOOOOOOOOOOOOOOOOO",
"OOOOOOOOOOOOOOOOOOOOOOOOOOOOOOOO"
};
