/* XPM */
static char *result[] = {
/* columns rows colors chars-per-pixel */
"32 32 92 1 ",
"  c #070200",
". c #000607",
"X c #00080A",
"o c #00090A",
"O c #000C0D",
"+ c #000D0E",
"@ c #000D0F",
"# c #100100",
"$ c #170200",
"% c #110500",
"& c #150701",
"* c #1A0600",
"= c #1B0601",
"- c #070E10",
"; c #070F10",
": c #001214",
"> c #001314",
", c #001316",
"< c #011618",
"1 c #00181A",
"2 c #00191B",
"3 c #001A1C",
"4 c #001B1D",
"5 c #011B1D",
"6 c #001C1E",
"7 c #210A00",
"8 c #220A00",
"9 c #220C00",
"0 c #290800",
"q c #280D01",
"w c #340B00",
"e c #281303",
"r c #2C1001",
"t c #2D1001",
"y c #341402",
"u c #371704",
"i c #3C1100",
"p c #3F1D07",
"a c #0F1F20",
"s c #002123",
"d c #002326",
"f c #002426",
"g c #012426",
"h c #002427",
"j c #002528",
"k c #1B2C2E",
"l c #002E32",
"z c #052E31",
"x c #073335",
"c c #00393D",
"v c #0B3C3F",
"b c #203234",
"n c #4C1700",
"m c #401D07",
"M c #481C13",
"N c #45280A",
"B c #56281B",
"V c #523210",
"C c #663527",
"Z c #684517",
"A c #7F5924",
"S c #2E3F42",
"D c #00474B",
"F c #004C52",
"G c #004D55",
"H c #00535A",
"J c #09595D",
"K c #2D4644",
"L c #374E4B",
"P c #005E65",
"I c #006670",
"U c #126D72",
"Y c #51615E",
"T c #636D6B",
"R c #6B7371",
"E c #8D6428",
"W c #8D6A33",
"Q c #935C47",
"! c #AE7B65",
"~ c #007F8A",
"^ c #009FA9",
"/ c #13B0B9",
"( c #2AB8BE",
") c #53F8FE",
"_ c #878886",
"` c #A8A8A7",
"' c #C9A897",
"] c gray78",
"[ c #CECECE",
"{ c #FEFDFD",
"} c #FEFEFE",
"| c None",
/* pixels */
"||||||||||||||||||||||||||||||||",
"||||||||||||||||||||||||||||||||",
"||||||||||||||$$$$$|||||||||||||",
"|||||||||||||$Q!'''$||||||||||||",
"|||||||||||||#wQ!!n$||||||||||||",
"|||||||||||||#MwnnC$||||||||||||",
"||||||||||||;R0MBCi];|||||||||||",
"||||||||||||;Y_00i}`;|||||||||||",
"||||||||||;;KaYTT`_ST;;|||||||||",
"|||||||||;KKLLakbSST_`[;||||||||",
"||||||||;KLLYYTYYYT`{44`;|||||||",
"||||||||;KLYT___``444^)5;|||||||",
"||||||||;LYT444444^^(PDf;|||||||",
"||||||||;444GIF~P~PPhhfg;|||||||",
"|||||||||;x2hhhhhhhhO>g;||||||||",
"||||||||||&gooOOOOO>dg&|||||||||",
"||||||||||%ryOO>6dddmp&|||||||||",
"||||||||||%VVuuummmmWW&|||||||||",
"||||||||| yVVZZAAEWWWWm ||||||||",
"|||||||||| NVVZZAAEEEE |||||||||",
"||||||||||%*NVVZZAAAE9&|||||||||",
"||||||||||%N=*VVZZA99A&|||||||||",
"|||||||||-7eNN****9ZZAp-||||||||",
"||||||||-vg7eNNVVVZZZpg<-|||||||",
"||||||||-g.@8qNNVVVyylHg-|||||||",
"||||||||-z.:@1qtyyyjcD/g-|||||||",
"||||||||-v.X:66jjjjcDUs<-|||||||",
"|||||||||-v.XX6dlccJJs<-||||||||",
"||||||||||-gz.X+,,3sg<-|||||||||",
"|||||||||||--xzgzzgz--||||||||||",
"|||||||||||||-------||||||||||||",
"||||||||||||||||||||||||||||||||"
};
